<?xml version="1.0" encoding="UTF-8"?>
<!DOCTYPE svg PUBLIC "-//W3C//DTD SVG 1.1//EN" "http://www.w3.org/Graphics/SVG/1.1/DTD/svg11.dtd">

<svg xmlns="http://www.w3.org/2000/svg" xmlns:xlink="http://www.w3.org/1999/xlink" xmlns:xs="http://www.w3.org/2001/XMLSchema" xmlns:wb="http://www.ti.com/webench" version="1.1" width="100%" height="100%" viewBox="0 0 1065.0 525.0" preserveAspectRatio="xMidYMid meet">
  <defs>
    <g id="WB_CONTINUATION">
      <circle xmlns="" opacity="0.01" fill="#ffffff" stroke="#000000" stroke-width="0" cx="0" cy="0" r="14" />
      <line fill="none" stroke="#CC0000" stroke-width="2" x1="0" y1="10" x2="0" y2="-10" />
      <line fill="none" stroke="#CC0000" stroke-width="2" x1="-10" y1="-10" x2="10" y2="-10" />
    </g>
    <g id="WB_ZERO_VOLT_SOURCE">
      <circle xmlns="" opacity="0.01" fill="#ffffff" stroke="#000000" stroke-width="0" cx="0" cy="0" r="14" />
      <line stroke="#CC0000" fill="none" stroke-width="2" x1="-5" y1="0" x2="5" y2="0" />
    </g>
    <g id="WB_BLOCK_IO">
      <circle xmlns="" opacity="0.01" fill="#ffffff" stroke="#000000" stroke-width="0" cx="0" cy="0" r="14" />
      <line stroke="#CC0000" fill="none" stroke-width="2" x1="-5" y1="0" x2="5" y2="0" />
    </g>
    <g id="WB_RESISTOR">
      <circle xmlns="" opacity="0.01" fill="#ffffff" stroke="#000000" stroke-width="0" cx="0" cy="0" r="14" />
      <polyline fill="none" stroke="#115566" stroke-width="2" stroke-linecap="round" stroke-linejoin="round" points="30,0 20,0 15,-6 7.5,6 0,-6 -7.5,6 -15,-6 -20,0 -30,0" />
    </g>
    <g id="WB_PWL_VOLTAGE_SOURCE">
      <circle xmlns="" opacity="0.01" fill="#ffffff" stroke="#000000" stroke-width="0" cx="0" cy="0" r="14" />
      <circle fill-opacity="0.01" fill="#CC0000" stroke="#CC0000" stroke-width="2" cx="0" cy="0" r="14" />
      <line y1="0" x2="-20" stroke="#CC0000" x1="-30" fill="none" stroke-width="2" y2="0" />
      <line y1="0" x2="20" stroke="#CC0000" x1="30" fill="none" stroke-width="2" y2="0" />
      <polyline stroke="#CC0000" points="-7,6 4,8  " stroke-linejoin="round" fill="none" stroke-width="2" stroke-linecap="round" />
      <polyline stroke="#CC0000" points="-7,-6 4,-8  " stroke-linejoin="round" fill="none" stroke-width="2" stroke-linecap="round" />
      <polyline stroke="#CC0000" points="-20,0 -15,0  " stroke-linejoin="round" fill="none" stroke-width="2" stroke-linecap="round" />
      <polyline stroke="#CC0000" points="20,0 15,0  " stroke-linejoin="round" fill="none" stroke-width="2" stroke-linecap="round" />
      <polyline stroke="#CC0000" points="-7,-6 -7,6  " stroke-linejoin="round" fill="none" stroke-width="2" stroke-linecap="round" />
      <polyline stroke="#CC0000" points="4,-8 4,-11  " stroke-linejoin="round" fill="none" stroke-width="2" stroke-linecap="round" />
      <polyline stroke="#CC0000" points="4,8 4,11  " stroke-linejoin="round" fill="none" stroke-width="2" stroke-linecap="round" />
      <line x1="23" y1="-13" x2="23" y2="-7" stroke="#CC0000" fill="none" stroke-width="2" stroke-linecap="round" />
      <line x1="-23" y1="-13" x2="-23" y2="-7" stroke="#CC0000" fill="none" stroke-width="2" stroke-linecap="round" />
      <line x1="-26" y1="-10" x2="-20" y2="-10" stroke="#CC0000" fill="none" stroke-width="2" stroke-linecap="round" />
    </g>
    <g id="WB_SOURCE_RESISTOR">
      <circle xmlns="" opacity="0.01" fill="#ffffff" stroke="#000000" stroke-width="0" cx="0" cy="0" r="14" />
      <polyline fill="none" stroke="#CC0000" stroke-width="2" stroke-linecap="round" stroke-linejoin="round" points="30,0 20,0 15,-6 7.5,6 0,-6 -7.5,6 -15,-6 -20,0 -30,0" />
    </g>
    <g id="WB_PRIM_PWL_VOLTAGE_SOURCE">
      <circle xmlns="" opacity="0.01" fill="#ffffff" stroke="#000000" stroke-width="0" cx="0" cy="0" r="14" />
      <circle fill-opacity="0.01" fill="#CC0000" stroke="#CC0000" stroke-width="2" cx="0" cy="0" r="14" />
      <line x1="-30" y1="0" x2="-15" y2="0" stroke="#CC0000" fill="none" stroke-width="2" />
      <line x1="30" y1="0" x2="15" y2="0" stroke="#CC0000" fill="none" stroke-width="2" />
      <polyline stroke="#CC0000" points="0,13 0,8 -7,6 -7,0 7,-4 0,-8 0,-13" stroke-linejoin="round" fill="none" stroke-width="2" stroke-linecap="round" />
      <line x1="23" y1="-13" x2="23" y2="-7" stroke="#CC0000" fill="none" stroke-width="2" stroke-linecap="round" />
      <line x1="-23" y1="-13" x2="-23" y2="-7" stroke="#CC0000" fill="none" stroke-width="2" stroke-linecap="round" />
      <line x1="-26" y1="-10" x2="-20" y2="-10" stroke="#CC0000" fill="none" stroke-width="2" stroke-linecap="round" />
    </g>
    <g id="WB_CURRENT_PROBE">
      <circle xmlns="" opacity="0.01" fill="#ffffff" stroke="#000000" stroke-width="0" cx="0" cy="0" r="14" />
      <line stroke="#CC0000" stroke-width="2" stroke-linecap="square" stroke-linejoin="round" x1="-16" y1="0" x2="-10" y2="0" />
      <polyline stroke="#CC0000" stroke-width="2" stroke-linecap="square" stroke-linejoin="round" points="6,0 3,-3.5 3,3.5 6,0 -6,0 " />
      <line stroke="#CC0000" stroke-width="2" stroke-linecap="square" stroke-linejoin="round" x1="10" y1="0" x2="16" y2="0" />
      <rect stroke-width="1" x="-9.5" y="-7" fill="none" stroke="#CC0000" width="19" height="14" />
    </g>
    <g id="WB_LOAD_RESISTOR">
      <circle xmlns="" opacity="0.01" fill="#ffffff" stroke="#000000" stroke-width="0" cx="0" cy="0" r="14" />
      <polyline fill="none" stroke="#CC0000" stroke-width="2" stroke-linecap="round" stroke-linejoin="round" points="30,0 20,0 15,-6 7.5,6 0,-6 -7.5,6 -15,-6 -20,0 -30,0" />
    </g>
    <g id="WB_PRIM_STARTUP_VOLTAGE_SOURCE">
      <circle xmlns="" opacity="0.01" fill="#ffffff" stroke="#000000" stroke-width="0" cx="0" cy="0" r="14" />
      <circle fill-opacity="0.01" fill="#CC0000" stroke="#CC0000" stroke-width="2" cx="0" cy="0" r="14" />
      <polyline fill="none" stroke="#CC0000" stroke-width="2" points="-6,-11 -6,7 5,9 5,12 " />
      <line fill="none" stroke="#CC0000" stroke-width="2" x1="16" y1="-12" x2="16" y2="-18" />
      <line fill="none" stroke="#CC0000" stroke-width="2" x1="-17" y1="-12" x2="-17" y2="-18" />
      <line fill="none" stroke="#CC0000" stroke-width="2" x1="-14" y1="-15" x2="-20" y2="-15" />
      <line fill="none" stroke="#CC0000" stroke-width="2" x1="-15" y1="0" x2="-30" y2="0" />
      <line fill="none" stroke="#CC0000" stroke-width="2" x1="30" y1="0" x2="15" y2="0" />
    </g>
    <g id="WB_STARTUP_VOLTAGE_SOURCE">
      <circle xmlns="" opacity="0.01" fill="#ffffff" stroke="#000000" stroke-width="0" cx="0" cy="0" r="14" />
      <circle fill-opacity="0.01" fill="#CC0000" stroke="#CC0000" stroke-width="2" cx="0" cy="0" r="14" />
      <polyline fill="none" stroke="#CC0000" stroke-width="2" points="-6,-11 -6,7 5,9 5,12 " />
      <line fill="none" stroke="#CC0000" stroke-width="2" x1="16" y1="-12" x2="16" y2="-18" />
      <line fill="none" stroke="#CC0000" stroke-width="2" x1="-17" y1="-12" x2="-17" y2="-18" />
      <line fill="none" stroke="#CC0000" stroke-width="2" x1="-14" y1="-15" x2="-20" y2="-15" />
      <line fill="none" stroke="#CC0000" stroke-width="2" x1="-15" y1="0" x2="-30" y2="0" />
      <line fill="none" stroke="#CC0000" stroke-width="2" x1="30" y1="0" x2="15" y2="0" />
    </g>
    <g id="WB_PWL_CURRENT_LOAD">
      <circle xmlns="" opacity="0.01" fill="#ffffff" stroke="#000000" stroke-width="0" cx="0" cy="0" r="14" />
      <circle fill-opacity="0.01" fill="#CC0000" stroke="#CC0000" stroke-width="2" cx="0" cy="0" r="14" />
      <line y1="0" x2="-20" stroke="#CC0000" x1="-30" fill="none" stroke-width="2" y2="0" />
      <line y1="0" x2="20" stroke="#CC0000" x1="30" fill="none" stroke-width="2" y2="0" />
      <polyline stroke="#CC0000" points="-7,6 4,8  " stroke-linejoin="round" fill="none" stroke-width="2" stroke-linecap="round" />
      <polyline stroke="#CC0000" points="-7,-6 4,-8  " stroke-linejoin="round" fill="none" stroke-width="2" stroke-linecap="round" />
      <polyline stroke="#CC0000" points="-20,0 -15,0  " stroke-linejoin="round" fill="none" stroke-width="2" stroke-linecap="round" />
      <polyline stroke="#CC0000" points="20,0 15,0  " stroke-linejoin="round" fill="none" stroke-width="2" stroke-linecap="round" />
      <polyline stroke="#CC0000" points="-7,-6 -7,6  " stroke-linejoin="round" fill="none" stroke-width="2" stroke-linecap="round" />
      <polyline stroke="#CC0000" points="4,-8 4,-11  " stroke-linejoin="round" fill="none" stroke-width="2" stroke-linecap="round" />
      <polyline stroke="#CC0000" points="4,8 4,11  " stroke-linejoin="round" fill="none" stroke-width="2" stroke-linecap="round" />
      <line x1="23" y1="-13" x2="23" y2="-7" stroke="#CC0000" fill="none" stroke-width="2" stroke-linecap="round" />
      <line x1="-23" y1="-13" x2="-23" y2="-7" stroke="#CC0000" fill="none" stroke-width="2" stroke-linecap="round" />
      <line x1="-26" y1="-10" x2="-20" y2="-10" stroke="#CC0000" fill="none" stroke-width="2" stroke-linecap="round" />
    </g>
    <g id="WB_PRIMITIVE_BATTERY">
      <circle xmlns="" opacity="0.01" fill="#ffffff" stroke="#000000" stroke-width="0" cx="0" cy="0" r="14" />
      <line fill="none" stroke="#CC0000" stroke-width="2" x1="-8" y1="0" x2="-30" y2="0" />
      <line fill="none" stroke="#CC0000" stroke-width="2" x1="-7" y1="12" x2="-7" y2="-12" />
      <line fill="none" stroke="#CC0000" stroke-width="2" x1="4" y1="12" x2="4" y2="-12" />
      <line fill="none" stroke="#CC0000" stroke-width="2" x1="30" y1="0" x2="11" y2="0" />
      <line fill="none" stroke="#CC0000" stroke-width="2" x1="-2" y1="5" x2="-2" y2="-5" />
      <line fill="none" stroke="#CC0000" stroke-width="2" x1="-1" y1="5" x2="-1" y2="-5" />
      <line fill="none" stroke="#CC0000" stroke-width="2" x1="-14" y1="-9" x2="-14" y2="-15" />
      <line fill="none" stroke="#CC0000" stroke-width="2" x1="-11" y1="-12" x2="-17" y2="-12" />
      <line fill="none" stroke="#CC0000" stroke-width="2" x1="13" y1="-10" x2="13" y2="-15" />
      <line fill="none" stroke="#CC0000" stroke-width="2" x1="10" y1="5" x2="10" y2="-5" />
      <line fill="none" stroke="#CC0000" stroke-width="2" x1="9" y1="5" x2="9" y2="-5" />
    </g>
    <g id="WB_CURRENT_LOAD">
      <circle xmlns="" opacity="0.01" fill="#ffffff" stroke="#000000" stroke-width="0" cx="0" cy="0" r="14" />
      <path fill="none" stroke="#CC0000" stroke-width="2" stroke-linecap="round" stroke-linejoin="round" d="M-15,0c 0.1, 4.2, 1.6, 7.7, 4.4, 10.6c 2.8, 2.8, 6.4, 4.3, 10.6, 4.4c 4.3-0.1, 7.8-1.6, 10.6 -4.4c 2.9-2.9, 4.3-6.4, 4.4-10.6" />
      <path fill="none" stroke="#CC0000" stroke-width="2" stroke-linecap="round" stroke-linejoin="round" d="M15,0c -0.1,-4.2,-1.6,-7.7,-4.4,-10.6c-2.8,-2.8,-6.4,-4.3,-10.6,-4.4c-4.3,0.1 -7.8,1.6 -10.6,4.4c-2.9,2.9 -4.3,6.4 -4.4,10.6" />
      <line fill="none" stroke="#CC0000" stroke-width="2" x1="30" y1="0" x2="15" y2="0" />
      <line fill="none" stroke="#CC0000" stroke-width="2" x1="-15" y1="0" x2="-30" y2="0" />
      <line fill="none" stroke="#CC0000" stroke-width="2" stroke-linecap="round" stroke-linejoin="round" x1="3" y1="7" x2="12" y2="0" />
      <line fill="none" stroke="#CC0000" stroke-width="2" stroke-linecap="round" stroke-linejoin="round" x1="3" y1="-7" x2="12" y2="0" />
      <line fill="none" stroke="#CC0000" stroke-width="2" stroke-linecap="round" stroke-linejoin="round" x1="12" y1="0" x2="-12" y2="0" />
    </g>
    <g id="WB_BATTERY">
      <circle xmlns="" opacity="0.01" fill="#ffffff" stroke="#000000" stroke-width="0" cx="0" cy="0" r="14" />
      <line fill="none" stroke="#CC0000" stroke-width="2" x1="-8" y1="0" x2="-30" y2="0" />
      <line fill="none" stroke="#CC0000" stroke-width="2" x1="-7" y1="12" x2="-7" y2="-12" />
      <line fill="none" stroke="#CC0000" stroke-width="2" x1="4" y1="12" x2="4" y2="-12" />
      <line fill="none" stroke="#CC0000" stroke-width="2" x1="30" y1="0" x2="11" y2="0" />
      <line fill="none" stroke="#CC0000" stroke-width="2" x1="-2" y1="5" x2="-2" y2="-5" />
      <line fill="none" stroke="#CC0000" stroke-width="2" x1="-1" y1="5" x2="-1" y2="-5" />
      <line fill="none" stroke="#CC0000" stroke-width="2" x1="-14" y1="-9" x2="-14" y2="-15" />
      <line fill="none" stroke="#CC0000" stroke-width="2" x1="-11" y1="-12" x2="-17" y2="-12" />
      <line fill="none" stroke="#CC0000" stroke-width="2" x1="13" y1="-10" x2="13" y2="-15" />
      <line fill="none" stroke="#CC0000" stroke-width="2" x1="10" y1="5" x2="10" y2="-5" />
      <line fill="none" stroke="#CC0000" stroke-width="2" x1="9" y1="5" x2="9" y2="-5" />
    </g>
    <g id="WB_TPS563240DDC">
      <circle xmlns="" opacity="0.01" fill="#ffffff" stroke="#000000" stroke-width="0" cx="0" cy="0" r="14" />
      <line fill="none" stroke="#000000" stroke-width="2" stroke-linecap="round" stroke-linejoin="round" x1="-50" y1="60" x2="50" y2="60" />
      <line fill="none" stroke="#000000" stroke-width="2" stroke-linecap="round" stroke-linejoin="round" x1="50" y1="60" x2="50" y2="-60" />
      <line fill="none" stroke="#000000" stroke-width="2" stroke-linecap="round" stroke-linejoin="round" x1="50" y1="-60" x2="-50" y2="-60" />
      <line fill="none" stroke="#000000" stroke-width="2" stroke-linecap="round" stroke-linejoin="round" x1="-50" y1="-60" x2="-50" y2="60" />
      <text id="partNumber_label" x="0" y="-47" style="font-family:arial;font-weight:bold;font-size:12px;text-anchor:middle;">TPS563240DDC</text>
      <line fill="none" stroke="#000000" stroke-width="2" stroke-linecap="round" stroke-linejoin="round" x1="70" y1="50" x2="50" y2="50" />
      <text id="1" x="46" y="54" transform="rotate(0,46,54)" style="font-family:arial;font-weight:normal;font-size:9px;text-anchor:end;">GND</text>
      <line fill="none" stroke="#000000" stroke-width="2" stroke-linecap="round" stroke-linejoin="round" x1="70" y1="-40" x2="50" y2="-40" />
      <text id="2" x="46" y="-36" transform="rotate(0,46,-36)" style="font-family:arial;font-weight:normal;font-size:9px;text-anchor:end;">SW</text>
      <line fill="none" stroke="#000000" stroke-width="2" stroke-linecap="round" stroke-linejoin="round" x1="-70" y1="-40" x2="-50" y2="-40" />
      <text id="3" x="-46" y="-36" transform="rotate(0,-46,-36)" style="font-family:arial;font-weight:normal;font-size:9px;text-anchor:start;">VIN</text>
      <line fill="none" stroke="#000000" stroke-width="2" stroke-linecap="round" stroke-linejoin="round" x1="70" y1="30" x2="50" y2="30" />
      <text id="4" x="46" y="34" transform="rotate(0,46,34)" style="font-family:arial;font-weight:normal;font-size:9px;text-anchor:end;">VFB</text>
      <line fill="none" stroke="#000000" stroke-width="2" stroke-linecap="round" stroke-linejoin="round" x1="-70" y1="-10" x2="-50" y2="-10" />
      <text id="5" x="-46" y="-6" transform="rotate(0,-46,-6)" style="font-family:arial;font-weight:normal;font-size:9px;text-anchor:start;">EN</text>
      <line fill="none" stroke="#000000" stroke-width="2" stroke-linecap="round" stroke-linejoin="round" x1="70" y1="-10" x2="50" y2="-10" />
      <text id="6" x="46" y="-6" transform="rotate(0,46,-6)" style="font-family:arial;font-weight:normal;font-size:9px;text-anchor:end;">VBST</text>
    </g>
    <g id="WB_INDUCTOR">
      <circle xmlns="" opacity="0.01" fill="#ffffff" stroke="#000000" stroke-width="0" cx="0" cy="0" r="14" />
      <path fill="none" stroke="#115566" stroke-width="2" stroke-linecap="round" stroke-linejoin="round" d="M-10,0c0-0.6-0.2-1.8-0.6-3.3c-0.5-2.4-2-3.7-4.4-4c-2.4,0.3-3.8,1.6-4.3,4c-0.6,2.3-0.8,3.6-0.7,3M-20,0H-30" />
      <path fill="none" stroke="#115566" stroke-width="2" stroke-linecap="round" stroke-linejoin="round" d="M0,0c0-0.6-0.2-1.8-0.6-3.3c-0.5-2.4-2-3.7-4.4-4c-2.4,0.3-3.8,1.6-4.3,4c-0.6,2.3-0.8,3.6-0.7,4" />
      <path fill="none" stroke="#115566" stroke-width="2" stroke-linecap="round" stroke-linejoin="round" d="M10,0c0-0.6-0.2-1.8-0.6-3.3c-0.5-2.4-2-3.7-4.4-4c-2.4,0.3-3.8,1.6-4.3,4c-0.6,2.3-0.8,3.6-0.7,4" />
      <path fill="none" stroke="#115566" stroke-width="2" stroke-linecap="round" stroke-linejoin="round" d="M30,0H20c0-0.6-0.2-1.8-0.6-3.3c-0.5-2.4-2-3.7-4.4-4c-2.4,0.3-3.8,1.6-4.3,4c-0.6,2.3-0.8,3.6-0.7,4" />
      <path fill="none" stroke="#115566" stroke-width="2" stroke-linecap="round" stroke-linejoin="round" d=" M10,0 c0.1,0.4,0.1,0.6,0,0.7" />
      <path fill="none" stroke="#115566" stroke-width="2" stroke-linecap="round" stroke-linejoin="round" d=" M0,0  c0.1,0.4,0.1,0.6,0,0.7" />
      <path fill="none" stroke="#115566" stroke-width="2" stroke-linecap="round" stroke-linejoin="round" d=" M-10,0c0.1,0.4,0.1,0.6,0,0.7" />
    </g>
    <g id="WB_CAPACITOR">
      <circle xmlns="" opacity="0.01" fill="#ffffff" stroke="#000000" stroke-width="0" cx="0" cy="0" r="14" />
      <line y1="0" x2="20" stroke="#115566" x1="30" fill="none" stroke-width="2" y2="0" />
      <line y1="0" x2="-20" stroke="#115566" x1="-30" fill="none" stroke-width="2" y2="0" />
      <polyline stroke="#115566" points="3,12 3,-12  " stroke-linejoin="round" fill="none" stroke-width="2" stroke-linecap="round" />
      <polyline stroke="#115566" points="-20,0 -3,0  " stroke-linejoin="round" fill="none" stroke-width="2" stroke-linecap="round" />
      <polyline stroke="#115566" points="3,0 20,0  " stroke-linejoin="round" fill="none" stroke-width="2" stroke-linecap="round" />
      <polyline stroke="#115566" points="-3,12 -3,-12  " stroke-linejoin="round" fill="none" stroke-width="2" stroke-linecap="round" />
    </g>
    <g id="WB_VOLTAGE_PROBE">
      <circle xmlns="" opacity="0.01" fill="#ffffff" stroke="#000000" stroke-width="0" cx="0" cy="0" r="14" />
      <rect stroke-width="1" width="20" stroke="#CC0000" x="-10" height="19.5" y="-30" fill="#CC0000" fill-opacity="0.01" />
      <polyline stroke="#CC0000" points="7,-27 4,-22 3,-26 0,-18 -1,-22 -5,-14  " stroke-linejoin="round" fill="none" stroke-width="2" stroke-linecap="round" />
      <line y1="0" x2="0" stroke="#CC0000" x1="0" fill="none" stroke-width="2" y2="-10" />
    </g>
    <g id="WB_GND">
      <circle xmlns="" opacity="0.01" fill="#ffffff" stroke="#000000" stroke-width="0" cx="0" cy="0" r="14" />
      <line fill="none" stroke="black" stroke-width="2" x1="0" y1="-10" x2="0" y2="0" />
      <line fill="none" stroke="black" stroke-width="2" x1="-13" y1="0" x2="13" y2="0" />
      <line fill="none" stroke="black" stroke-width="2" x1="-9" y1="4" x2="9" y2="4" />
      <line fill="none" stroke="black" stroke-width="2" x1="-3" y1="8" x2="3" y2="8" />
    </g>
  </defs>
  <use id="U1" class="comp" xlink:href="#WB_TPS563240DDC" x="425.0" y="235.0" />
  <text for="U1" x="405.0" y="235.0" style="font-family:arial;font-size:13px;stroke-width:0.5;stroke:#115566;fill:#115566;">U1</text>
  <use id="L1" class="comp" xlink:href="#WB_INDUCTOR" x="650.0" y="195.0" transform="rotate(-180, 650.0, 195.0) scale(1,-1) translate(0,-390.0)" partNo="VLP8040T-1R5N" thermalId="VLP8040" l="1.5uH" dcr="13mOhm" manufacturer="TDK" />
  <text for="L1" x="630.0" y="180.0" style="font-family:arial;font-size:13px;stroke-width:0.5;stroke:#115566;fill:#115566;">L1</text>
  <text for="L1" x="630.0" y="215.0" style="font-family:arial;font-size:10px;stroke-width:0.1;stroke:#CC0000;fill:#CC0000;">1.5uH</text>
  <text for="L1" x="630.0" y="225.0" style="font-family:arial;font-size:10px;stroke-width:0.1;stroke:#CC0000;fill:#CC0000;">13mOhm</text>
  <use id="Cin" class="comp" xlink:href="#WB_CAPACITOR" x="175.0" y="315.0" transform="rotate(-90, 175.0, 315.0)" cap="10uF" partNo="GRM21BR61E106MA73L" thermalId="0805" esr="4mOhm" manufacturer="MuRata" />
  <text for="Cin" x="190.0" y="315.0" style="font-family:arial;font-size:13px;stroke-width:0.5;stroke:#115566;fill:#115566;">Cin</text>
  <text for="Cin" x="190.0" y="325.0" style="font-family:arial;font-size:10px;stroke-width:0.1;stroke:#CC0000;fill:#CC0000;">10uF</text>
  <text for="Cin" x="190.0" y="335.0" style="font-family:arial;font-size:10px;stroke-width:0.1;stroke:#CC0000;fill:#CC0000;">4mOhm</text>
  <text for="Cin" x="190.0" y="345.0" style="font-family:arial;font-size:10px;stroke-width:0.1;stroke:#CC0000;fill:#CC0000;">Qty=2</text>
  <use id="Cboot" class="comp" xlink:href="#WB_CAPACITOR" x="530.0" y="150.0" transform="rotate(-90, 530.0, 150.0)" cap="100nF" partNo="EMK107B7104KA-T" thermalId="0603" esr="1mOhm" manufacturer="Taiyo Yuden" />
  <text for="Cboot" x="545.0" y="150.0" style="font-family:arial;font-size:13px;stroke-width:0.5;stroke:#115566;fill:#115566;">Cboot</text>
  <text for="Cboot" x="545.0" y="160.0" style="font-family:arial;font-size:10px;stroke-width:0.1;stroke:#CC0000;fill:#CC0000;">100nF</text>
  <text for="Cboot" x="545.0" y="170.0" style="font-family:arial;font-size:10px;stroke-width:0.1;stroke:#CC0000;fill:#CC0000;">1mOhm</text>
  <use id="GND" class="other" xlink:href="#WB_GND" x="495.0" y="310.0" />
  <use id="Cout" class="comp" xlink:href="#WB_CAPACITOR" x="855.0" y="315.0" transform="rotate(-90, 855.0, 315.0)" cap="22uF" partNo="C1608X5R1A226M080AC" thermalId="0603" esr="3.71mOhm" manufacturer="TDK" />
  <text for="Cout" x="870.0" y="315.0" style="font-family:arial;font-size:13px;stroke-width:0.5;stroke:#115566;fill:#115566;">Cout</text>
  <text for="Cout" x="870.0" y="325.0" style="font-family:arial;font-size:10px;stroke-width:0.1;stroke:#CC0000;fill:#CC0000;">22uF</text>
  <text for="Cout" x="870.0" y="335.0" style="font-family:arial;font-size:10px;stroke-width:0.1;stroke:#CC0000;fill:#CC0000;">3.71mOhm</text>
  <text for="Cout" x="870.0" y="345.0" style="font-family:arial;font-size:10px;stroke-width:0.1;stroke:#CC0000;fill:#CC0000;">Qty=2</text>
  <use id="Cinx" class="comp" xlink:href="#WB_CAPACITOR" x="280.0" y="315.0" transform="rotate(-90, 280.0, 315.0)" cap="100nF" partNo="GRM188R61C104KA01D" thermalId="0603" esr="1mOhm" manufacturer="MuRata" />
  <text for="Cinx" x="295.0" y="315.0" style="font-family:arial;font-size:13px;stroke-width:0.5;stroke:#115566;fill:#115566;">Cinx</text>
  <text for="Cinx" x="295.0" y="325.0" style="font-family:arial;font-size:10px;stroke-width:0.1;stroke:#CC0000;fill:#CC0000;">100nF</text>
  <text for="Cinx" x="295.0" y="335.0" style="font-family:arial;font-size:10px;stroke-width:0.1;stroke:#CC0000;fill:#CC0000;">1mOhm</text>
  <use id="GND2" class="other" xlink:href="#WB_GND" x="425.0" y="425.0" />
  <use id="Rfbt" class="comp" xlink:href="#WB_RESISTOR" x="740.0" y="235.0" transform="rotate(-90, 740.0, 235.0)" partNo="CRCW040273K2FKED" thermalId="0402" resistance="73.2kOhm" manufacturer="Vishay-Dale" />
  <text for="Rfbt" x="755.0" y="235.0" style="font-family:arial;font-size:13px;stroke-width:0.5;stroke:#115566;fill:#115566;">Rfbt</text>
  <text for="Rfbt" x="755.0" y="245.0" style="font-family:arial;font-size:10px;stroke-width:0.1;stroke:#CC0000;fill:#CC0000;">73.2kOhm</text>
  <use id="Rfbb" class="comp" xlink:href="#WB_RESISTOR" x="740.0" y="325.0" transform="rotate(-90, 740.0, 325.0)" partNo="RC0201FR-0710KL" thermalId="0201" resistance="10kOhm" manufacturer="Yageo" />
  <text for="Rfbb" x="755.0" y="325.0" style="font-family:arial;font-size:13px;stroke-width:0.5;stroke:#115566;fill:#115566;">Rfbb</text>
  <text for="Rfbb" x="755.0" y="335.0" style="font-family:arial;font-size:10px;stroke-width:0.1;stroke:#CC0000;fill:#CC0000;">10kOhm</text>
  <use id="Vin" class="other" xlink:href="#WB_BATTERY" x="100.0" y="275.0" transform="rotate(-270, 100.0, 275.0)" />
  <text for="Vin" x="115.0" y="275.0" style="font-family:arial;font-size:13px;stroke-width:0.5;stroke:#CC0000;fill:#CC0000;">Vin</text>
  <use id="Iout" class="other" xlink:href="#WB_CURRENT_LOAD" x="950.0" y="335.0" transform="rotate(-270, 950.0, 335.0)" />
  <text for="Iout" x="965.0" y="335.0" style="font-family:arial;font-size:13px;stroke-width:0.5;stroke:#CC0000;fill:#CC0000;">Iout</text>
  <line x1="740.0" y1="295.0" x2="740.0" y2="265.0" stroke="#000000" stroke-width="2" fill="none" />
  <line x1="740.0" y1="415.0" x2="740.0" y2="355.0" stroke="#000000" stroke-width="2" fill="none" />
  <line x1="740.0" y1="205.0" x2="740.0" y2="195.0" stroke="#000000" stroke-width="2" fill="none" />
  <line x1="175.0" y1="345.0" x2="175.0" y2="415.0" stroke="#000000" stroke-width="2" fill="none" />
  <line x1="330.0" y1="225.0" x2="330.0" y2="195.0" stroke="#000000" stroke-width="2" fill="none" />
  <line x1="495.0" y1="265.0" x2="740.0" y2="265.0" stroke="#000000" stroke-width="2" fill="none" />
  <line x1="500.0" y1="110.0" x2="500.0" y2="195.0" stroke="#000000" stroke-width="2" fill="none" />
  <line x1="500.0" y1="110.0" x2="530.0" y2="110.0" stroke="#000000" stroke-width="2" fill="none" />
  <line x1="530.0" y1="120.0" x2="530.0" y2="110.0" stroke="#000000" stroke-width="2" fill="none" />
  <line x1="495.0" y1="300.0" x2="495.0" y2="285.0" stroke="#000000" stroke-width="2" fill="none" />
  <line x1="855.0" y1="345.0" x2="855.0" y2="415.0" stroke="#000000" stroke-width="2" fill="none" />
  <line x1="280.0" y1="345.0" x2="280.0" y2="415.0" stroke="#000000" stroke-width="2" fill="none" />
  <line x1="355.0" y1="225.0" x2="330.0" y2="225.0" stroke="#000000" stroke-width="2" fill="none" />
  <line x1="495.0" y1="225.0" x2="530.0" y2="225.0" stroke="#000000" stroke-width="2" fill="none" />
  <line x1="530.0" y1="225.0" x2="530.0" y2="180.0" stroke="#000000" stroke-width="2" fill="none" />
  <line x1="620.0" y1="195.0" x2="495.0" y2="195.0" stroke="#000000" stroke-width="2" fill="none" />
  <line x1="175.0" y1="285.0" x2="175.0" y2="195.0" stroke="#000000" stroke-width="2" fill="none" />
  <line x1="855.0" y1="285.0" x2="855.0" y2="195.0" stroke="#000000" stroke-width="2" fill="none" />
  <line x1="280.0" y1="285.0" x2="280.0" y2="195.0" stroke="#000000" stroke-width="2" fill="none" />
  <line x1="100.0" y1="195.0" x2="355.0" y2="195.0" stroke="#000000" stroke-width="2" fill="none" />
  <line x1="100.0" y1="415.0" x2="950.0" y2="415.0" stroke="#000000" stroke-width="2" fill="none" />
  <line x1="680.0" y1="195.0" x2="950.0" y2="195.0" stroke="#000000" stroke-width="2" fill="none" />
  <line x1="100.0" y1="245.0" x2="100.0" y2="195.0" stroke="#000000" stroke-width="2" fill="none" />
  <line x1="100.0" y1="415.0" x2="100.0" y2="305.0" stroke="#000000" stroke-width="2" fill="none" />
  <line x1="950.0" y1="305.0" x2="950.0" y2="195.0" stroke="#000000" stroke-width="2" fill="none" />
  <line x1="950.0" y1="415.0" x2="950.0" y2="365.0" stroke="#000000" stroke-width="2" fill="none" />
  <circle cx="500.0" cy="195.0" r="5" stroke="#000000" stroke-width="0" fill="#000000" />
  <circle cx="330.0" cy="195.0" r="5" stroke="#000000" stroke-width="0" fill="#000000" />
  <circle cx="175.0" cy="195.0" r="5" stroke="#000000" stroke-width="0" fill="#000000" />
  <circle cx="280.0" cy="195.0" r="5" stroke="#000000" stroke-width="0" fill="#000000" />
  <circle cx="740.0" cy="415.0" r="5" stroke="#000000" stroke-width="0" fill="#000000" />
  <circle cx="175.0" cy="415.0" r="5" stroke="#000000" stroke-width="0" fill="#000000" />
  <circle cx="855.0" cy="415.0" r="5" stroke="#000000" stroke-width="0" fill="#000000" />
  <circle cx="280.0" cy="415.0" r="5" stroke="#000000" stroke-width="0" fill="#000000" />
  <circle cx="740.0" cy="195.0" r="5" stroke="#000000" stroke-width="0" fill="#000000" />
  <circle cx="855.0" cy="195.0" r="5" stroke="#000000" stroke-width="0" fill="#000000" />
  <circle cx="740.0" cy="265.0" r="5" stroke="#000000" stroke-width="0" fill="#000000" />
  <circle cx="425.0" cy="415.0" r="5" stroke="#000000" stroke-width="0" fill="#000000" />
</svg>

